<svg xmlns="http://www.w3.org/2000/svg" viewBox="0 0 288.25 288.25"><defs><style>.cls-1{stroke:#000;stroke-miterlimit:10;stroke-width:0.25px;}</style></defs><g id="Layer_2" data-name="Layer 2"><g id="Logo_2.1" data-name="Logo 2.1"><path class="cls-1" d="M35.94,201.4a35.79,35.79,0,0,0-10.52,24.27A144,144,0,0,1,200.36,11.52L80.48,131.39a54,54,0,0,0-11.06,60.37A35.94,35.94,0,0,0,35.94,201.4Z"/><path class="cls-1" d="M246,246A144,144,0,0,1,62.58,262.83a36,36,0,0,0,33.91-44,54,54,0,0,0,60.36-11.07L276.73,87.89A144,144,0,0,1,246,246Z"/><path class="cls-1" d="M257.88,55.82,112.3,201.4,86.85,175.94,232.43,30.36A146.76,146.76,0,0,1,246,42.3,142.65,142.65,0,0,1,257.88,55.82Z"/><circle class="cls-1" cx="61.39" cy="226.85" r="18"/></g></g></svg>